<svg width="209" height="277" viewBox="0 0 209 277" fill="none" xmlns="http://www.w3.org/2000/svg">
<rect x="105.001" y="3.62512" width="5.16237" height="17.7237" transform="rotate(-44.6131 105.001 3.62512)" fill="#0052CC"/>
<rect x="2.35472" y="103.986" width="5.16237" height="17.7237" transform="rotate(48.8941 2.35472 103.986)" fill="#0052CC"/>
<rect x="137.001" y="256.723" width="6.93795" height="19.4708" transform="rotate(-6.09793 137.001 256.723)" fill="#FFD747"/>
<rect x="14.8141" y="219.986" width="11" height="31.1158" transform="rotate(56.0575 14.8141 219.986)" fill="#0036DA"/>
<rect x="208.186" y="256.071" width="11" height="31.1158" transform="rotate(146.964 208.186 256.071)" fill="#7E2DE6"/>
<rect x="17.0207" y="18.9225" width="7.29819" height="22.2472" transform="rotate(118.673 17.0207 18.9225)" fill="#FF6B00"/>
<rect x="47.5881" y="250.986" width="6.24299" height="19.6862" transform="rotate(70.7678 47.5881 250.986)" fill="#FFD5BE"/>
<rect x="88.7604" y="228.986" width="11" height="31.1158" transform="rotate(16.351 88.7604 228.986)" fill="#A2FEBA"/>
<rect x="59.5598" y="8.98596" width="3.17185" height="12.0597" transform="rotate(17.1636 59.5598 8.98596)" fill="#A2FEBA"/>
<rect x="186.842" y="2" width="5.59148" height="15.3317" transform="rotate(45 186.842 2)" fill="#FF6B00"/>
</svg>
