<svg width="19" height="22" viewBox="0 0 19 22" fill="none" xmlns="http://www.w3.org/2000/svg">
<path d="M16.7024 0.552734H2.24888C1.90442 0.552734 1.56339 0.691546 1.32176 0.938322C1.07498 1.1851 0.934456 1.52099 0.934456 1.86716C0.934456 2.21162 1.07498 2.55265 1.32176 2.79428C1.56682 3.04106 1.90442 3.17987 2.24888 3.17987H6.19044C8.36687 3.18501 10.1286 4.94672 10.132 7.12143C10.1286 9.29786 8.36687 11.0596 6.19044 11.0647H2.24888C1.71934 11.0647 1.2395 11.3835 1.03385 11.877C0.828205 12.3689 0.943025 12.9327 1.31662 13.3097L9.19974 21.1928C9.71386 21.7069 10.5467 21.7069 11.0608 21.1928C11.5732 20.6804 11.5732 19.8475 11.0608 19.3334L5.4227 13.6918H6.19044C9.82011 13.6918 12.7609 10.7511 12.7609 7.12143C12.7609 3.49177 9.82011 0.552734 6.19044 0.552734H2.24888C1.90442 0.552734 1.56339 0.691546 1.32176 0.938322C1.07498 1.1851 0.934456 1.52099 0.934456 1.86716C0.934456 2.21162 1.07498 2.55265 1.32176 2.79428C1.56682 3.04106 1.90442 3.17987 2.24888 3.17987H16.7024C17.429 3.17987 18.0151 2.59378 18.0151 1.86716C18.0151 1.14054 17.429 0.552734 16.7024 0.552734Z" fill="black"/>
<path d="M2.24887 8.43573H16.7024C17.429 8.43573 18.0168 7.84964 18.0168 7.12302C18.0168 6.39469 17.429 5.80859 16.7024 5.80859H2.24887C1.52226 5.80859 0.934448 6.39469 0.934448 7.12302C0.934448 7.84964 1.52226 8.43573 2.24887 8.43573Z" fill="black"/>
</svg>