<svg width="92" height="92" viewBox="0 0 92 92" fill="none" xmlns="http://www.w3.org/2000/svg">
<path d="M46 0L73.0381 8.78522L89.7486 31.7852V60.2148L73.0381 83.2148L46 92L18.9619 83.2148L2.2514 60.2148V31.7852L18.9619 8.78522L46 0Z" fill="#8A54E7"/>
<path d="M22.938 63.598C30.85 63.598 35.956 59.274 35.956 52.42C35.956 45.934 31.08 42.346 25.514 42.346C23.03 42.346 21.052 43.082 19.534 44.186L19.718 38.436H34.208V31.398H12.496L12.036 48.74L17.234 50.764C18.844 49.522 20.776 48.786 23.03 48.786C26.158 48.786 28.136 50.35 28.136 52.696C28.136 54.95 26.25 56.79 22.938 56.79C20.086 56.79 17.234 55.364 14.888 53.248L10.38 58.814C13.416 61.758 17.51 63.598 22.938 63.598ZM52.0811 63.552C60.6371 63.552 66.6171 56.79 66.6171 47.176C66.6171 37.608 60.6371 30.846 52.0811 30.846C43.5711 30.846 37.5451 37.608 37.5451 47.176C37.5451 56.79 43.5711 63.552 52.0811 63.552ZM52.0811 56.422C48.3091 56.422 45.6411 52.558 45.6411 47.176C45.6411 41.794 48.3091 37.976 52.0811 37.976C55.8991 37.976 58.5671 41.794 58.5671 47.176C58.5671 52.558 55.8991 56.422 52.0811 56.422Z" fill="white"/>
<path d="M70.256 57.096C71.864 57.096 73.216 55.792 73.216 54.248C73.216 52.704 71.864 51.408 70.256 51.408C68.656 51.408 67.304 52.704 67.304 54.248C67.304 55.792 68.656 57.096 70.256 57.096ZM70.256 55.856C69.416 55.856 68.704 55.12 68.704 54.248C68.704 53.384 69.416 52.648 70.256 52.648C71.096 52.648 71.808 53.384 71.808 54.248C71.808 55.12 71.096 55.856 70.256 55.856ZM78.3478 52.728V51.504H74.0198V57H75.3878V54.936H78.0758V53.712H75.3878V52.728H78.3478ZM83.4884 52.728V51.504H79.1604V57H80.5284V54.936H83.2164V53.712H80.5284V52.728H83.4884Z" fill="white"/>
<path d="M71.2 43.24C73.34 43.24 74.8 41.7 74.8 39.68C74.8 37.72 73.4 36.12 71.2 36.12C69.02 36.12 67.62 37.72 67.62 39.68C67.62 41.7 69.06 43.24 71.2 43.24ZM69.5 50H72.14L81.8 36.26H79.16L69.5 50ZM71.2 41.1C70.56 41.1 70.06 40.58 70.06 39.68C70.06 38.78 70.54 38.28 71.2 38.28C71.86 38.28 72.36 38.8 72.36 39.68C72.36 40.6 71.86 41.1 71.2 41.1ZM80.08 50.22C82.2 50.22 83.66 48.66 83.66 46.66C83.66 44.68 82.26 43.08 80.08 43.08C77.94 43.08 76.48 44.64 76.48 46.66C76.48 48.62 77.9 50.22 80.08 50.22ZM80.08 48.06C79.42 48.06 78.92 47.54 78.92 46.66C78.92 45.72 79.4 45.24 80.08 45.24C80.72 45.24 81.24 45.76 81.24 46.66C81.24 47.56 80.74 48.06 80.08 48.06Z" fill="white"/>
</svg>
