<svg width="92" height="92" viewBox="0 0 92 92" fill="none" xmlns="http://www.w3.org/2000/svg">
<path d="M46 0L73.0381 8.78522L89.7486 31.7852V60.2148L73.0381 83.2148L46 92L18.9619 83.2148L2.2514 60.2148V31.7852L18.9619 8.78522L46 0Z" fill="#71D2EF"/>
<path d="M10.932 63H35.542V55.962H22.984L27.952 52.42C33.472 48.648 35.22 45.382 35.22 41.196C35.22 35.17 30.252 30.846 23.168 30.846C17.97 30.846 13.876 33.008 10.518 37.056L15.44 41.932C17.832 39.402 20.04 37.976 22.984 37.976C25.284 37.976 27.17 39.356 27.17 41.518C27.17 43.45 26.158 45.198 22.616 47.866L10.932 56.606V63ZM51.8115 63.552C60.3675 63.552 66.3475 56.79 66.3475 47.176C66.3475 37.608 60.3675 30.846 51.8115 30.846C43.3015 30.846 37.2755 37.608 37.2755 47.176C37.2755 56.79 43.3015 63.552 51.8115 63.552ZM51.8115 56.422C48.0395 56.422 45.3715 52.558 45.3715 47.176C45.3715 41.794 48.0395 37.976 51.8115 37.976C55.6295 37.976 58.2975 41.794 58.2975 47.176C58.2975 52.558 55.6295 56.422 51.8115 56.422Z" fill="white"/>
<path d="M70.256 57.096C71.864 57.096 73.216 55.792 73.216 54.248C73.216 52.704 71.864 51.408 70.256 51.408C68.656 51.408 67.304 52.704 67.304 54.248C67.304 55.792 68.656 57.096 70.256 57.096ZM70.256 55.856C69.416 55.856 68.704 55.12 68.704 54.248C68.704 53.384 69.416 52.648 70.256 52.648C71.096 52.648 71.808 53.384 71.808 54.248C71.808 55.12 71.096 55.856 70.256 55.856ZM78.3478 52.728V51.504H74.0198V57H75.3878V54.936H78.0758V53.712H75.3878V52.728H78.3478ZM83.4884 52.728V51.504H79.1604V57H80.5284V54.936H83.2164V53.712H80.5284V52.728H83.4884Z" fill="white"/>
<path d="M71.2 43.24C73.34 43.24 74.8 41.7 74.8 39.68C74.8 37.72 73.4 36.12 71.2 36.12C69.02 36.12 67.62 37.72 67.62 39.68C67.62 41.7 69.06 43.24 71.2 43.24ZM69.5 50H72.14L81.8 36.26H79.16L69.5 50ZM71.2 41.1C70.56 41.1 70.06 40.58 70.06 39.68C70.06 38.78 70.54 38.28 71.2 38.28C71.86 38.28 72.36 38.8 72.36 39.68C72.36 40.6 71.86 41.1 71.2 41.1ZM80.08 50.22C82.2 50.22 83.66 48.66 83.66 46.66C83.66 44.68 82.26 43.08 80.08 43.08C77.94 43.08 76.48 44.64 76.48 46.66C76.48 48.62 77.9 50.22 80.08 50.22ZM80.08 48.06C79.42 48.06 78.92 47.54 78.92 46.66C78.92 45.72 79.4 45.24 80.08 45.24C80.72 45.24 81.24 45.76 81.24 46.66C81.24 47.56 80.74 48.06 80.08 48.06Z" fill="white"/>
</svg>
