<svg width="92" height="92" viewBox="0 0 92 92" fill="none" xmlns="http://www.w3.org/2000/svg">
<path d="M46 0L73.0381 8.78522L89.7486 31.7852V60.2148L73.0381 83.2148L46 92L18.9619 83.2148L2.2514 60.2148V31.7852L18.9619 8.78522L46 0Z" fill="#47DBBA"/>
<path d="M15.6509 58.8154H36.6805V52.8013H25.9495L30.1948 49.7746C34.9117 46.5514 36.4054 43.7605 36.4054 40.1835C36.4054 35.0342 32.1602 31.3393 26.1068 31.3393C21.665 31.3393 18.1666 33.1868 15.2972 36.6458L19.5031 40.8124C21.5471 38.6505 23.4338 37.432 25.9495 37.432C27.9149 37.432 29.5265 38.6112 29.5265 40.4587C29.5265 42.1096 28.6618 43.6033 25.6351 45.8831L15.6509 53.3516V58.8154ZM47.9627 59.3264C54.7236 59.3264 59.0868 55.6314 59.0868 49.7746C59.0868 44.2322 54.9201 41.1662 50.1639 41.1662C48.0413 41.1662 46.3511 41.7951 45.0539 42.7385L45.2111 37.8251H57.5931V31.811H39.0398L38.6468 46.63L43.0885 48.3595C44.4643 47.2982 46.1152 46.6693 48.0413 46.6693C50.7142 46.6693 52.4044 48.0058 52.4044 50.0104C52.4044 51.9365 50.7928 53.5088 47.9627 53.5088C45.5256 53.5088 43.0885 52.2903 41.0838 50.4821L37.2317 55.2384C39.826 57.7541 43.3244 59.3264 47.9627 59.3264ZM72.3288 59.2871C79.64 59.2871 84.75 53.5088 84.75 45.2935C84.75 37.1175 79.64 31.3393 72.3288 31.3393C65.0568 31.3393 59.9075 37.1175 59.9075 45.2935C59.9075 53.5088 65.0568 59.2871 72.3288 59.2871ZM72.3288 53.1944C69.1055 53.1944 66.8257 49.8925 66.8257 45.2935C66.8257 40.6945 69.1055 37.432 72.3288 37.432C75.5913 37.432 77.8711 40.6945 77.8711 45.2935C77.8711 49.8925 75.5913 53.1944 72.3288 53.1944Z" fill="white"/>
<path d="M66.256 67.096C67.864 67.096 69.216 65.792 69.216 64.248C69.216 62.704 67.864 61.408 66.256 61.408C64.656 61.408 63.304 62.704 63.304 64.248C63.304 65.792 64.656 67.096 66.256 67.096ZM66.256 65.856C65.416 65.856 64.704 65.12 64.704 64.248C64.704 63.384 65.416 62.648 66.256 62.648C67.096 62.648 67.808 63.384 67.808 64.248C67.808 65.12 67.096 65.856 66.256 65.856ZM74.3478 62.728V61.504H70.0198V67H71.3878V64.936H74.0758V63.712H71.3878V62.728H74.3478ZM79.4884 62.728V61.504H75.1604V67H76.5284V64.936H79.2164V63.712H76.5284V62.728H79.4884Z" fill="white"/>
<path d="M16.1406 45.4375L15.6748 47.2041H7.35156L7.82617 45.4375H16.1406ZM11.7461 55L7.60645 50.0781L7.59766 48.4785H9.6543C10.0938 48.4785 10.457 48.3877 10.7441 48.2061C11.0312 48.0244 11.2451 47.7783 11.3857 47.4678C11.5264 47.1572 11.5967 46.8115 11.5967 46.4307C11.5967 46.0439 11.5322 45.7012 11.4033 45.4023C11.2803 45.0977 11.0752 44.8604 10.7881 44.6904C10.5068 44.5146 10.126 44.4268 9.64551 44.4268H7.36035L7.90527 42.2031H9.64551C10.7002 42.2031 11.582 42.3613 12.291 42.6777C13.0059 42.9941 13.542 43.4541 13.8994 44.0576C14.2627 44.6553 14.4443 45.376 14.4443 46.2197C14.4443 46.9639 14.3301 47.6143 14.1016 48.1709C13.8789 48.7275 13.5244 49.1904 13.0381 49.5596C12.5576 49.9229 11.9277 50.1982 11.1484 50.3857L14.8486 54.8682V55H11.7461ZM16.1494 42.2031L15.6836 43.9785H8.75781L9.22363 42.2031H16.1494Z" fill="white"/>
</svg>
