<svg width="16" height="16" viewBox="0 0 16 16" fill="none" xmlns="http://www.w3.org/2000/svg">
<path d="M3.33333 14.6667H11.82C12.2879 14.6666 12.7409 14.5024 13.1002 14.2028C13.4595 13.9031 13.7024 13.487 13.7867 13.0267L14.6333 8.36008C14.6861 8.07179 14.6748 7.77542 14.6004 7.49196C14.5259 7.2085 14.3901 6.94486 14.2024 6.71971C14.0148 6.49456 13.78 6.3134 13.5146 6.18904C13.2492 6.06469 12.9597 6.00018 12.6667 6.00008H9.62667L10 5.04675C10.1553 4.62934 10.207 4.18048 10.1507 3.7387C10.0944 3.29691 9.93179 2.87536 9.67679 2.51023C9.42179 2.1451 9.08202 1.84728 8.68663 1.64231C8.29124 1.43734 7.85202 1.33134 7.40667 1.33341C7.27843 1.33368 7.15298 1.37093 7.04538 1.4407C6.93778 1.51046 6.85258 1.60978 6.8 1.72675L4.9 6.00008H3.33333C2.8029 6.00008 2.29419 6.21079 1.91912 6.58587C1.54405 6.96094 1.33333 7.46965 1.33333 8.00008V12.6667C1.33333 13.1972 1.54405 13.7059 1.91912 14.081C2.29419 14.456 2.8029 14.6667 3.33333 14.6667ZM6 6.80675L7.81333 2.72675C7.99887 2.78289 8.17095 2.87642 8.31897 3.00158C8.46699 3.12674 8.58782 3.28089 8.67401 3.45452C8.7602 3.62815 8.80993 3.81758 8.82013 4.01116C8.83033 4.20474 8.80079 4.39835 8.73333 4.58008L8.38 5.53341C8.30471 5.73492 8.27929 5.95165 8.30592 6.1651C8.33254 6.37856 8.41041 6.5824 8.53289 6.75924C8.65537 6.93608 8.81881 7.08066 9.00927 7.18064C9.19973 7.28062 9.41156 7.33304 9.62667 7.33341H12.6667C12.7646 7.33326 12.8614 7.35468 12.9501 7.39616C13.0388 7.43764 13.1173 7.49816 13.18 7.57341C13.2442 7.64763 13.2913 7.73511 13.3178 7.82961C13.3443 7.92411 13.3496 8.02329 13.3333 8.12008L12.4867 12.7867C12.4583 12.9421 12.3757 13.0822 12.2536 13.1823C12.1315 13.2825 11.9779 13.336 11.82 13.3334H6V6.80675ZM2.66667 8.00008C2.66667 7.82327 2.7369 7.6537 2.86193 7.52868C2.98695 7.40365 3.15652 7.33341 3.33333 7.33341H4.66667V13.3334H3.33333C3.15652 13.3334 2.98695 13.2632 2.86193 13.1382C2.7369 13.0131 2.66667 12.8436 2.66667 12.6667V8.00008Z" fill="black"/>
</svg>
