<svg width="16" height="16" viewBox="0 0 16 16" fill="none" xmlns="http://www.w3.org/2000/svg">
<path d="M12.6667 1.33325H4.18C3.71213 1.33341 3.25912 1.49759 2.89979 1.79724C2.54046 2.09688 2.29755 2.51302 2.21333 2.97325L1.36667 7.63992C1.31391 7.92821 1.32516 8.22458 1.39962 8.50804C1.47408 8.7915 1.60993 9.05514 1.79756 9.28029C1.98518 9.50544 2.22 9.6866 2.48539 9.81096C2.75078 9.93531 3.04025 9.99982 3.33333 9.99992H6.37333L6 10.9533C5.84471 11.3707 5.793 11.8195 5.84929 12.2613C5.90558 12.7031 6.06821 13.1246 6.32321 13.4898C6.57821 13.8549 6.91798 14.1527 7.31337 14.3577C7.70876 14.5627 8.14798 14.6687 8.59333 14.6666C8.72157 14.6663 8.84702 14.6291 8.95462 14.5593C9.06222 14.4895 9.14742 14.3902 9.2 14.2733L11.1 9.99992H12.6667C13.1971 9.99992 13.7058 9.78921 14.0809 9.41413C14.456 9.03906 14.6667 8.53035 14.6667 7.99992V3.33325C14.6667 2.80282 14.456 2.29411 14.0809 1.91904C13.7058 1.54397 13.1971 1.33325 12.6667 1.33325ZM10 9.19325L8.18667 13.2733C8.00113 13.2171 7.82905 13.1236 7.68103 12.9984C7.53301 12.8733 7.41218 12.7191 7.32599 12.5455C7.2398 12.3719 7.19007 12.1824 7.17987 11.9888C7.16967 11.7953 7.19921 11.6016 7.26667 11.4199L7.62 10.4666C7.69529 10.2651 7.72071 10.0484 7.69408 9.8349C7.66746 9.62144 7.58959 9.4176 7.46711 9.24076C7.34463 9.06392 7.18119 8.91934 6.99073 8.81936C6.80027 8.71938 6.58844 8.66696 6.37333 8.66659H3.33333C3.23539 8.66674 3.13862 8.64532 3.0499 8.60384C2.96118 8.56236 2.88268 8.50184 2.82 8.42659C2.75578 8.35237 2.70873 8.26489 2.68223 8.17039C2.65572 8.07589 2.65041 7.97671 2.66667 7.87992L3.51333 3.21325C3.54173 3.05795 3.62432 2.91776 3.74641 2.81765C3.86849 2.71754 4.02214 2.66401 4.18 2.66659H10V9.19325ZM13.3333 7.99992C13.3333 8.17673 13.2631 8.3463 13.1381 8.47132C13.013 8.59635 12.8435 8.66659 12.6667 8.66659H11.3333V2.66659H12.6667C12.8435 2.66659 13.013 2.73682 13.1381 2.86185C13.2631 2.98687 13.3333 3.15644 13.3333 3.33325V7.99992Z" fill="black"/>
</svg>
